<?xml version="1.0" encoding="utf-8"?>
<!-- Generator: Adobe Illustrator 24.1.0, SVG Export Plug-In . SVG Version: 6.00 Build 0)  -->
<svg version="1.1" id="Layer_1" xmlns="http://www.w3.org/2000/svg" xmlns:xlink="http://www.w3.org/1999/xlink" x="0px" y="0px"
	 viewBox="0 0 2030.7 260.3" style="enable-background:new 0 0 2030.7 260.3;" xml:space="preserve">
<style type="text/css">
	.st0{fill:#FFFFFF;}
</style>
<g>
	<path class="st0" d="M1564.5,71.4l-39.3,18.4v167.1h-23.8v-156l-29.2,14l-10.1-21.6l39.3-18.7V53.3l-47.9,22.2l-9.8-21.6
		l108.8-50.7l10.1,21.6l-37.4,17.4v21.2l29.2-13.6L1564.5,71.4z"/>
	<path class="st0" d="M113.2,256.9l-27,0.3l-36.1-76.4v76.4H26.3V3.5h5.4h18.1H59L109.7,111l-10.5,4.8L56.2,136L113.2,256.9z
		 M77.4,99.9L49.8,42.2v70.7L77.4,99.9z"/>
	<path class="st0" d="M309.5,204.2l9.8,21.6l-66,30.8v0.3h-23.8V3.2h23.8l68.5,24.7l-8.2,22.5l-60.2-21.9V118l24.4-11.1l9.8,21.2
		l-34.2,16.2v86.2L309.5,204.2z"/>
	<path class="st0" d="M534,71.4l-39.3,18.4v167.1h-23.8v-156l-29.2,14l-10.1-21.6l39.3-18.7V53.3L423,75.5l-9.8-21.6L522,3.2
		l10.1,21.6l-37.4,17.4v21.2l29.2-13.6L534,71.4z"/>
	<g>
		<path class="st0" d="M1501.5,100.8l-29.2,14l-10.1-21.6l39.3-18.7V100.8z M1525.2,63.4l29.2-13.6l10.1,21.6l-39.3,18.4V63.4z"/>
	</g>
	<g>
		<path class="st0" d="M470.9,100.8l-29.2,14l-10.1-21.6l39.3-18.7V100.8z M494.7,63.4l29.2-13.6L534,71.4l-39.3,18.4V63.4z"/>
	</g>
	<path class="st0" d="M730.6,190.3l10.1,21.6l-95.8,45l-10.1-21.6l41.2-19.3V53.3l-31.4,14.6l-10.1-21.2l92.6-43.4l9.8,21.6
		l-37.1,17.4v162.7L730.6,190.3z"/>
	<path class="st0" d="M965.9,3.2v253.4v0.3h-27.3l-36.8-77.7l-56.1,26.6v51.1h-23.8V3.5h23.5l0.3-0.3l37.4,79l59-27.6V3.2H965.9z
		 M845.4,179.5l46.3-21.6l-46.3-97.7V179.5z M893.3,103.4l48.8,103.4V80.5L893.3,103.4z"/>
	<g>
		<path class="st0" d="M845.4,179.5l46.3-21.6l10.1,21.2l-56.1,26.6L845.4,179.5z M883.1,82.1l59-27.6v26l-48.8,22.8L883.1,82.1z"/>
	</g>
	<path class="st0" d="M1133.9,204.2l9.8,21.6l-66,30.8v0.3H1054V3.2h23.8l68.5,24.7l-8.2,22.5l-60.2-21.9V118l24.4-11.1l9.8,21.2
		l-34.2,16.2v86.2L1133.9,204.2z"/>
	<path class="st0" d="M1378.1,3.2v253.4v0.3h-27.3l-36.8-77.7l-56.1,26.6v51.1h-23.8V3.5h23.5l0.3-0.3l37.4,79l59-27.6V3.2H1378.1z
		 M1257.6,179.5l46.3-21.6l-46.3-97.7V179.5z M1305.5,103.4l48.8,103.4V80.5L1305.5,103.4z"/>
	<path class="st0" d="M1761.1,190.3l10.1,21.6l-95.8,45l-10.1-21.6l41.2-19.3V53.3l-31.4,14.6l-10.1-21.2l92.6-43.4l9.8,21.6
		l-37.1,17.4v162.7L1761.1,190.3z"/>
	<path class="st0" d="M2004.3,257.2v-0.3h-27.3l-16.8-35.5l-76.1,35.5h-23.8V3.5h23.8L2004.3,257.2z M1930.1,158.2l-46-97
		l-0.3,118.6L1930.1,158.2z M1883.9,230.8l66.3-31.1l-9.8-20.3l-56.4,26.3V230.8z"/>
	<path class="st0" d="M1883.9,230.8l66.3-31.1 M1883.9,205.8v25.1 M1940.3,179.5l-10.1-21.2l-46.3,21.6v26L1940.3,179.5
		 M1950.1,199.8l-9.8-20.3 M1883.9,230.8l0.3,26l76.1-35.5l-10.1-21.6"/>
	<g>
		<path class="st0" d="M1257.6,179.5l46.3-21.6l10.1,21.2l-56.1,26.6L1257.6,179.5z M1295.3,82.1l59-27.6v26l-48.8,22.8L1295.3,82.1
			z"/>
	</g>
</g>
</svg>
